# Blender v2.82 (sub 1) OBJ File: 'cornell.blend'
# www.blender.org
mtllib cornell_simple.mtl
o Cube
v -4.000000 -4.000000 4.000000
v -4.000000 4.000000 4.000000
v -4.000000 -4.000000 -4.000000
v -4.000000 4.000000 -4.000000
v 4.000000 -4.000000 4.000000
v 4.000000 4.000000 4.000000
v 4.000000 -4.000000 -4.000000
v 4.000000 4.000000 -4.000000
vn -1.0000 0.0000 0.0000
vn 1.0000 0.0000 0.0000
vn 0.0000 0.0000 1.0000
vn 0.0000 -1.0000 0.0000
vn 0.0000 1.0000 0.0000
usemtl Green
s off
f 2//1 3//1 1//1
f 2//1 4//1 3//1
usemtl Red
f 8//2 5//2 7//2
f 8//2 6//2 5//2
usemtl White
f 6//3 1//3 5//3
f 7//4 1//4 3//4
f 4//5 6//5 8//5
f 6//3 2//3 1//3
f 7//4 5//4 1//4
f 4//5 2//5 6//5
o Cube.001
v 1.032842 -4.123214 2.313145
v 1.032842 -2.123214 2.313145
v -0.381372 -4.123214 0.898931
v -0.381372 -2.123214 0.898931
v 2.447055 -4.123214 0.898931
v 2.447055 -2.123214 0.898931
v 1.032842 -4.123214 -0.515282
v 1.032842 -2.123210 -0.515282
vn -0.7071 0.0000 0.7071
vn -0.7071 0.0000 -0.7071
vn 0.7071 0.0000 -0.7071
vn 0.7071 0.0000 0.7071
vn 0.0000 -1.0000 0.0000
vn 0.0000 1.0000 0.0000
usemtl Blue
s off
f 10//6 11//6 9//6
f 12//7 15//7 11//7
f 15//8 14//8 13//8
f 14//9 9//9 13//9
f 15//10 9//10 11//10
f 12//11 14//11 16//11
f 10//6 12//6 11//6
f 12//7 16//7 15//7
f 15//8 16//8 14//8
f 14//9 10//9 9//9
f 15//10 13//10 9//10
f 12//11 10//11 14//11
o Cube.002
v -3.520742 -4.092613 1.154484
v -3.520742 0.000255 1.154484
v -2.625176 -4.092613 -0.633800
v -2.625176 0.000255 -0.633800
v -1.732458 -4.092613 2.050050
v -1.732458 0.000255 2.050050
v -0.836891 -4.092613 0.261766
v -0.836891 0.000255 0.261766
vn -0.8941 0.0000 -0.4478
vn 0.4478 0.0000 -0.8941
vn 0.8941 0.0000 0.4478
vn -0.4478 0.0000 0.8941
vn 0.0000 -1.0000 0.0000
vn 0.0000 1.0000 0.0000
usemtl White
s off
f 18//12 19//12 17//12
f 20//13 23//13 19//13
f 24//14 21//14 23//14
f 22//15 17//15 21//15
f 23//16 17//16 19//16
f 20//17 22//17 24//17
f 18//12 20//12 19//12
f 20//13 24//13 23//13
f 24//14 22//14 21//14
f 22//15 18//15 17//15
f 23//16 21//16 17//16
f 20//17 18//17 22//17
o Plane
v -1.000000 3.900000 1.000000
v 1.000000 3.900000 1.000000
v -1.000000 3.900000 -1.000000
v 1.000000 3.900000 -1.000000
vn 0.0000 1.0000 0.0000
usemtl EWhite
s off
f 26//18 27//18 25//18
f 26//18 28//18 27//18
